<?xml version="1.0" encoding="us-ascii" standalone="no"?><svg xmlns="http://www.w3.org/2000/svg" xmlns:xlink="http://www.w3.org/1999/xlink" contentStyleType="text/css" height="541px" preserveAspectRatio="none" style="width:673px;height:541px;background:#FFFFFF;" version="1.1" viewBox="0 0 673 541" width="673px" zoomAndPan="magnify"><defs/><g><!--class Finder--><g id="elem_Finder"><rect codeLine="2" fill="#F1F1F1" height="97.4648" id="Finder" rx="2.5" ry="2.5" style="stroke:#181818;stroke-width:0.5;" width="362" x="136.5" y="7"/><ellipse cx="291.25" cy="23" fill="#ADD1B2" rx="11" ry="11" style="stroke:#181818;stroke-width:1.0;"/><path d="M293.7231,29.1431 Q293.1421,29.4419 292.5029,29.5913 Q291.8638,29.7407 291.1582,29.7407 Q288.6514,29.7407 287.3315,28.0889 Q286.0117,26.437 286.0117,23.3159 Q286.0117,20.1865 287.3315,18.5347 Q288.6514,16.8828 291.1582,16.8828 Q291.8638,16.8828 292.5112,17.0322 Q293.1587,17.1816 293.7231,17.4805 L293.7231,20.2031 Q293.0923,19.6221 292.4988,19.3523 Q291.9053,19.0825 291.2744,19.0825 Q289.9297,19.0825 289.2449,20.1492 Q288.5601,21.2158 288.5601,23.3159 Q288.5601,25.4077 289.2449,26.4744 Q289.9297,27.541 291.2744,27.541 Q291.9053,27.541 292.4988,27.2712 Q293.0923,27.0015 293.7231,26.4204 Z " fill="#000000"/><text fill="#000000" font-family="sans-serif" font-size="14" lengthAdjust="spacing" textLength="44" x="311.75" y="28.291">Finder</text><line style="stroke:#181818;stroke-width:0.5;" x1="137.5" x2="497.5" y1="39" y2="39"/><rect fill="none" height="6" style="stroke:#C82930;stroke-width:1.0;" width="6" x="144.5" y="49.7441"/><text fill="#000000" font-family="sans-serif" font-size="14" lengthAdjust="spacing" textLength="216" x="156.5" y="56.5352">allPersons: Collection&lt;Person&gt;</text><rect fill="none" height="6" style="stroke:#C82930;stroke-width:1.0;" width="6" x="144.5" y="66.2324"/><text fill="#000000" font-family="sans-serif" font-size="14" lengthAdjust="spacing" textLength="336" x="156.5" y="73.0234">allPrisoners: Map&lt;String, Collection&lt;Prisoner&gt;&gt;</text><line style="stroke:#181818;stroke-width:0.5;" x1="137.5" x2="497.5" y1="79.9766" y2="79.9766"/><ellipse cx="147.5" cy="93.7207" fill="#84BE84" rx="3" ry="3" style="stroke:#038048;stroke-width:1.0;"/><text fill="#000000" font-family="sans-serif" font-size="14" lengthAdjust="spacing" textLength="288" x="156.5" y="97.5117">displayAllSuspectsWithName(String name)</text></g><!--class Person--><g id="elem_Person"><rect codeLine="9" fill="#F1F1F1" height="163.418" id="Person" rx="2.5" ry="2.5" style="stroke:#181818;stroke-width:0.5;" width="140" x="74.5" y="363.15"/><ellipse cx="116.95" cy="379.15" fill="#ADD1B2" rx="11" ry="11" style="stroke:#181818;stroke-width:1.0;"/><path d="M119.4231,385.2931 Q118.8421,385.5919 118.2029,385.7413 Q117.5638,385.8907 116.8582,385.8907 Q114.3514,385.8907 113.0315,384.2389 Q111.7117,382.587 111.7117,379.4659 Q111.7117,376.3365 113.0315,374.6847 Q114.3514,373.0328 116.8582,373.0328 Q117.5638,373.0328 118.2112,373.1822 Q118.8587,373.3316 119.4231,373.6305 L119.4231,376.3531 Q118.7923,375.7721 118.1988,375.5023 Q117.6053,375.2325 116.9744,375.2325 Q115.6297,375.2325 114.9449,376.2992 Q114.2601,377.3658 114.2601,379.4659 Q114.2601,381.5577 114.9449,382.6244 Q115.6297,383.691 116.9744,383.691 Q117.6053,383.691 118.1988,383.4212 Q118.7923,383.1515 119.4231,382.5704 Z " fill="#000000"/><text fill="#000000" font-family="sans-serif" font-size="14" lengthAdjust="spacing" textLength="47" x="137.05" y="384.441">Person</text><line style="stroke:#181818;stroke-width:0.5;" x1="75.5" x2="213.5" y1="395.15" y2="395.15"/><rect fill="none" height="6" style="stroke:#C82930;stroke-width:1.0;" width="6" x="82.5" y="405.8941"/><text fill="#000000" font-family="sans-serif" font-size="14" lengthAdjust="spacing" textLength="114" x="94.5" y="412.6852">firstname: String</text><rect fill="none" height="6" style="stroke:#C82930;stroke-width:1.0;" width="6" x="82.5" y="422.3824"/><text fill="#000000" font-family="sans-serif" font-size="14" lengthAdjust="spacing" textLength="111" x="94.5" y="429.1734">lastname: String</text><rect fill="none" height="6" style="stroke:#C82930;stroke-width:1.0;" width="6" x="82.5" y="438.8707"/><text fill="#000000" font-family="sans-serif" font-size="14" lengthAdjust="spacing" textLength="51" x="94.5" y="445.6617">age: int</text><line style="stroke:#181818;stroke-width:0.5;" x1="75.5" x2="213.5" y1="452.6148" y2="452.6148"/><ellipse cx="85.5" cy="466.359" fill="#84BE84" rx="3" ry="3" style="stroke:#038048;stroke-width:1.0;"/><text fill="#000000" font-family="sans-serif" font-size="14" lengthAdjust="spacing" textLength="59" x="94.5" y="470.15">getAge()</text><ellipse cx="85.5" cy="482.8473" fill="#84BE84" rx="3" ry="3" style="stroke:#038048;stroke-width:1.0;"/><text fill="#000000" font-family="sans-serif" font-size="14" lengthAdjust="spacing" textLength="75" x="94.5" y="486.6383">firstname()</text><ellipse cx="85.5" cy="499.3355" fill="#84BE84" rx="3" ry="3" style="stroke:#038048;stroke-width:1.0;"/><text fill="#000000" font-family="sans-serif" font-size="14" lengthAdjust="spacing" textLength="95" x="94.5" y="503.1266">middlename()</text><ellipse cx="85.5" cy="515.8238" fill="#84BE84" rx="3" ry="3" style="stroke:#038048;stroke-width:1.0;"/><text fill="#000000" font-family="sans-serif" font-size="14" lengthAdjust="spacing" textLength="58" x="94.5" y="519.6148">display()</text></g><!--class PersonDataProvider--><g id="elem_PersonDataProvider"><rect codeLine="20" fill="#F1F1F1" height="80.9766" id="PersonDataProvider" rx="2.5" ry="2.5" style="stroke:#181818;stroke-width:0.5;" width="275" x="7" y="189.19"/><ellipse cx="72.75" cy="205.19" fill="#ADD1B2" rx="11" ry="11" style="stroke:#181818;stroke-width:1.0;"/><path d="M75.2231,211.3331 Q74.6421,211.6319 74.0029,211.7813 Q73.3638,211.9307 72.6582,211.9307 Q70.1514,211.9307 68.8315,210.2789 Q67.5117,208.627 67.5117,205.5059 Q67.5117,202.3765 68.8315,200.7247 Q70.1514,199.0728 72.6582,199.0728 Q73.3638,199.0728 74.0112,199.2222 Q74.6587,199.3716 75.2231,199.6705 L75.2231,202.3931 Q74.5923,201.8121 73.9988,201.5423 Q73.4053,201.2725 72.7744,201.2725 Q71.4297,201.2725 70.7449,202.3392 Q70.0601,203.4058 70.0601,205.5059 Q70.0601,207.5977 70.7449,208.6644 Q71.4297,209.731 72.7744,209.731 Q73.4053,209.731 73.9988,209.4612 Q74.5923,209.1915 75.2231,208.6104 Z " fill="#000000"/><text fill="#000000" font-family="sans-serif" font-size="14" lengthAdjust="spacing" textLength="135" x="93.25" y="210.481">PersonDataProvider</text><line style="stroke:#181818;stroke-width:0.5;" x1="8" x2="281" y1="221.19" y2="221.19"/><rect fill="none" height="6" style="stroke:#C82930;stroke-width:1.0;" width="6" x="15" y="231.9341"/><text fill="#000000" font-family="sans-serif" font-size="14" lengthAdjust="spacing" textLength="249" x="27" y="238.7252">cracovCitizens : Collection&lt;Person&gt;</text><line style="stroke:#181818;stroke-width:0.5;" x1="8" x2="281" y1="245.6783" y2="245.6783"/><ellipse cx="18" cy="259.4224" fill="#84BE84" rx="3" ry="3" style="stroke:#038048;stroke-width:1.0;"/><text fill="#000000" font-family="sans-serif" font-size="14" lengthAdjust="spacing" textLength="152" x="27" y="263.2134">getAllCracovCitizens()</text></g><!--class Prisoner--><g id="elem_Prisoner"><rect codeLine="26" fill="#F1F1F1" height="179.9063" id="Prisoner" rx="2.5" ry="2.5" style="stroke:#181818;stroke-width:0.5;" width="289" x="347" y="354.9"/><ellipse cx="458.75" cy="370.9" fill="#ADD1B2" rx="11" ry="11" style="stroke:#181818;stroke-width:1.0;"/><path d="M461.2231,377.0431 Q460.6421,377.3419 460.0029,377.4913 Q459.3638,377.6407 458.6582,377.6407 Q456.1514,377.6407 454.8315,375.9889 Q453.5117,374.337 453.5117,371.2159 Q453.5117,368.0865 454.8315,366.4347 Q456.1514,364.7828 458.6582,364.7828 Q459.3638,364.7828 460.0112,364.9322 Q460.6587,365.0816 461.2231,365.3805 L461.2231,368.1031 Q460.5923,367.5221 459.9988,367.2523 Q459.4053,366.9825 458.7744,366.9825 Q457.4297,366.9825 456.7449,368.0492 Q456.0601,369.1158 456.0601,371.2159 Q456.0601,373.3077 456.7449,374.3744 Q457.4297,375.441 458.7744,375.441 Q459.4053,375.441 459.9988,375.1712 Q460.5923,374.9015 461.2231,374.3204 Z " fill="#000000"/><text fill="#000000" font-family="sans-serif" font-size="14" lengthAdjust="spacing" textLength="57" x="479.25" y="376.191">Prisoner</text><line style="stroke:#181818;stroke-width:0.5;" x1="348" x2="635" y1="386.9" y2="386.9"/><rect fill="none" height="6" style="stroke:#C82930;stroke-width:1.0;" width="6" x="355" y="397.6441"/><text fill="#000000" font-family="sans-serif" font-size="14" lengthAdjust="spacing" textLength="131" x="367" y="404.4352">judgementYear: int</text><rect fill="none" height="6" style="stroke:#C82930;stroke-width:1.0;" width="6" x="355" y="414.1324"/><text fill="#000000" font-family="sans-serif" font-size="14" lengthAdjust="spacing" textLength="138" x="367" y="420.9234">senteceDuration: int</text><rect fill="none" height="6" style="stroke:#C82930;stroke-width:1.0;" width="6" x="355" y="430.6207"/><text fill="#000000" font-family="sans-serif" font-size="14" lengthAdjust="spacing" textLength="85" x="367" y="437.4117">pesel: String</text><rect fill="none" height="6" style="stroke:#C82930;stroke-width:1.0;" width="6" x="355" y="447.109"/><text fill="#000000" font-family="sans-serif" font-size="14" lengthAdjust="spacing" textLength="87" x="367" y="453.9">name: String</text><rect fill="none" height="6" style="stroke:#C82930;stroke-width:1.0;" width="6" x="355" y="463.5973"/><text fill="#000000" font-family="sans-serif" font-size="14" lengthAdjust="spacing" textLength="109" x="367" y="470.3883">surname: String</text><line style="stroke:#181818;stroke-width:0.5;" x1="348" x2="635" y1="477.3414" y2="477.3414"/><ellipse cx="358" cy="491.0855" fill="#84BE84" rx="3" ry="3" style="stroke:#038048;stroke-width:1.0;"/><text fill="#000000" font-family="sans-serif" font-size="14" lengthAdjust="spacing" textLength="67" x="367" y="494.8766">getPesel()</text><ellipse cx="358" cy="507.5738" fill="#84BE84" rx="3" ry="3" style="stroke:#038048;stroke-width:1.0;"/><text fill="#000000" font-family="sans-serif" font-size="14" lengthAdjust="spacing" textLength="263" x="367" y="511.3648">czyMoglbyEwentualnieBycPodejrzany()</text><ellipse cx="358" cy="524.0621" fill="#84BE84" rx="3" ry="3" style="stroke:#038048;stroke-width:1.0;"/><text fill="#000000" font-family="sans-serif" font-size="14" lengthAdjust="spacing" textLength="116" x="367" y="527.8531">getCurrentYear()</text></g><!--class PrisonersDatabase--><g id="elem_PrisonersDatabase"><rect codeLine="38" fill="#F1F1F1" height="130.4414" id="PrisonersDatabase" rx="2.5" ry="2.5" style="stroke:#181818;stroke-width:0.5;" width="350" x="316.5" y="164.46"/><ellipse cx="423.75" cy="180.46" fill="#ADD1B2" rx="11" ry="11" style="stroke:#181818;stroke-width:1.0;"/><path d="M426.2231,186.6031 Q425.6421,186.9019 425.0029,187.0513 Q424.3638,187.2007 423.6582,187.2007 Q421.1514,187.2007 419.8315,185.5489 Q418.5117,183.897 418.5117,180.7759 Q418.5117,177.6465 419.8315,175.9947 Q421.1514,174.3428 423.6582,174.3428 Q424.3638,174.3428 425.0112,174.4922 Q425.6587,174.6416 426.2231,174.9405 L426.2231,177.6631 Q425.5923,177.0821 424.9988,176.8123 Q424.4053,176.5425 423.7744,176.5425 Q422.4297,176.5425 421.7449,177.6092 Q421.0601,178.6758 421.0601,180.7759 Q421.0601,182.8677 421.7449,183.9344 Q422.4297,185.001 423.7744,185.001 Q424.4053,185.001 424.9988,184.7312 Q425.5923,184.4615 426.2231,183.8804 Z " fill="#000000"/><text fill="#000000" font-family="sans-serif" font-size="14" lengthAdjust="spacing" textLength="127" x="444.25" y="185.751">PrisonersDatabase</text><line style="stroke:#181818;stroke-width:0.5;" x1="317.5" x2="665.5" y1="196.46" y2="196.46"/><rect fill="none" height="6" style="stroke:#C82930;stroke-width:1.0;" width="6" x="324.5" y="207.2041"/><text fill="#000000" font-family="sans-serif" font-size="14" lengthAdjust="spacing" textLength="321" x="336.5" y="213.9952">prisoners: Map&lt;String, Collection&lt;Prisoner&gt;&gt;</text><line style="stroke:#181818;stroke-width:0.5;" x1="317.5" x2="665.5" y1="220.9483" y2="220.9483"/><ellipse cx="327.5" cy="234.6924" fill="#84BE84" rx="3" ry="3" style="stroke:#038048;stroke-width:1.0;"/><text fill="#000000" font-family="sans-serif" font-size="14" lengthAdjust="spacing" textLength="55" x="336.5" y="238.4834">findAll()</text><ellipse cx="327.5" cy="251.1807" fill="#84BE84" rx="3" ry="3" style="stroke:#038048;stroke-width:1.0;"/><text fill="#000000" font-family="sans-serif" font-size="14" lengthAdjust="spacing" textLength="100" x="336.5" y="254.9717">getAllPrisons()</text><ellipse cx="327.5" cy="267.669" fill="#84BE84" rx="3" ry="3" style="stroke:#038048;stroke-width:1.0;"/><text fill="#000000" font-family="sans-serif" font-size="14" lengthAdjust="spacing" textLength="324" x="336.5" y="271.46">addPrisoner(String category, Prisoner prisoner)</text><ellipse cx="327.5" cy="284.1573" fill="#84BE84" rx="3" ry="3" style="stroke:#038048;stroke-width:1.0;"/><text fill="#000000" font-family="sans-serif" font-size="14" lengthAdjust="spacing" textLength="175" x="336.5" y="287.9483">render(Prisoner prisoner)</text></g><!--link Finder to PersonDataProvider--><g id="link_Finder_PersonDataProvider"><path codeLine="47" d="M269.31,104.63 C242.62,131.16 209.82,163.76 184.55,188.88 " fill="none" id="Finder-PersonDataProvider" style="stroke:#181818;stroke-width:1.0;"/></g><!--link Finder to PrisonersDatabase--><g id="link_Finder_PrisonersDatabase"><path codeLine="48" d="M365.97,104.63 C384.57,123.01 406.12,144.31 426.06,164.01 " fill="none" id="Finder-PrisonersDatabase" style="stroke:#181818;stroke-width:1.0;"/></g><!--reverse link PersonDataProvider to Person--><g id="link_PersonDataProvider_Person"><path codeLine="49" d="M144.5,282.28 C144.5,308.29 144.5,331.24 144.5,362.97 " fill="none" id="PersonDataProvider-backto-Person" style="stroke:#181818;stroke-width:1.0;"/><polygon fill="none" points="144.5,270.28,140.5,276.28,144.5,282.28,148.5,276.28,144.5,270.28" style="stroke:#181818;stroke-width:1.0;"/></g><!--reverse link PrisonersDatabase to Prisoner--><g id="link_PrisonersDatabase_Prisoner"><path codeLine="50" d="M491.5,307.22 C491.5,325.97 491.5,334.79 491.5,354.76 " fill="none" id="PrisonersDatabase-backto-Prisoner" style="stroke:#181818;stroke-width:1.0;"/><polygon fill="none" points="491.5,295.22,487.5,301.22,491.5,307.22,495.5,301.22,491.5,295.22" style="stroke:#181818;stroke-width:1.0;"/></g><!--SRC=[bLFBRjim4BppA_OeeN7Wk4vH245GHxPR15OXr4wA7cbgep2WIO4F5NBHVozbFI8dkbGdQNPsTpWSCK6DWJMN6MhuGy0_4w12fAYDaYQ2M0c1p78bRnhi5WOipJtYuGWIMjnihUOolpZhQHctlktKzm4oRWf1guKGMsSAppC_kNt-JWyOD0D0-lUG_2M4dTGrUtjrJrmRMrCYQFWjxhbZCCqzmgNjrkTe5pa6OVlPJ-kH0yyoWMTGApbu9sf9BKsrAldGFgOfKsNCBJ-YD33cuL2C4F5PGn32O4thNp_ynMKv7b3QNqXrSx2cO3o639TEqthJi5IWGV76bX6dZDDdwAl6j1xGky6ELQ9oiQzMl_rEHuNaU5UnL6NueezKLZtJjyPEwrRjcNrTSce7zzHWVy3YFp95-akKcVTnk7VHfTFqACsohhLB6gCMSwMhYrUZk_rTbrVlBpSOgVl3j3_EP3AIXs7nxMd9I7nKFuMyTqSDff0lNX8XgQ3IFYGRA3tH-m9NbxFfR7xvCTWzErZZ7gwkOJQDvjDeUWtnQWTrEIJ1rtHJpi0efndMqVPMx5tjR4ZkQKdXXvEMrpcelu9T4i9srO6maYNNIjO99FUFIKE2Ryfk2sLFv4_poHsti4NjXS5ZGfRuH9smlfMfpBiUmSDkFVbCDbJcxlHxeYInyWjq5K6w-GS0]--></g></svg>